{
  "accessors": [
    {
      "bufferView": 2,
      "componentType": 5126,
      "count": 2217,
      "max": [
        0.9511939883232117,
        0.9511950016021729,
        4.129889011383057
      ],
      "min": [
        -0.9511939883232117,
        -0.9511939883232117,
        -0.16008999943733215
      ],
      "type": "VEC3"
    },
    {
      "bufferView": 2,
      "byteOffset": 26604,
      "componentType": 5126,
      "count": 2217,
      "max": [
        1.0,
        1.0,
        1.0
      ],
      "min": [
        -1.0,
        -1.0,
        -1.0
      ],
      "type": "VEC3"
    },
    {
      "bufferView": 3,
      "componentType": 5126,
      "count": 2217,
      "max": [
        0.950796365737915,
        0.9991694092750549,
        0.9971625804901123,
        1.0
      ],
      "min": [
        -0.9999489188194275,
        -0.9997455477714539,
        -0.9999239444732666,
        1.0
      ],
      "type": "VEC4"
    },
    {
      "bufferView": 1,
      "componentType": 5126,
      "count": 2217,
      "max": [
        0.9901999831199646,
        0.9895380139350891
      ],
      "min": [
        0.6668779850006104,
        0.010211000218987465
      ],
      "type": "VEC2"
    },
    {
      "bufferView": 0,
      "componentType": 5125,
      "count": 10452,
      "type": "SCALAR"
    },
    {
      "bufferView": 2,
      "byteOffset": 53208,
      "componentType": 5126,
      "count": 924,
      "max": [
        1.0,
        1.0,
        4.017975807189941
      ],
      "min": [
        -1.0,
        -1.0,
        -0.06336800009012222
      ],
      "type": "VEC3"
    },
    {
      "bufferView": 2,
      "byteOffset": 64296,
      "componentType": 5126,
      "count": 924,
      "max": [
        1.0,
        1.0,
        0.47310811281204224
      ],
      "min": [
        -1.0,
        -1.0,
        -0.765562117099762
      ],
      "type": "VEC3"
    },
    {
      "bufferView": 3,
      "byteOffset": 35472,
      "componentType": 5126,
      "count": 924,
      "max": [
        0.7655620574951172,
        0.7647292613983154,
        -0.6417849659919739,
        1.0
      ],
      "min": [
        -0.7647292613983154,
        -0.7647293210029602,
        -1.0,
        1.0
      ],
      "type": "VEC4"
    },
    {
      "bufferView": 1,
      "byteOffset": 17736,
      "componentType": 5126,
      "count": 924,
      "max": [
        0.6479300260543823,
        0.9776729941368103
      ],
      "min": [
        0.01812100037932396,
        0.01433700043708086
      ],
      "type": "VEC2"
    },
    {
      "bufferView": 0,
      "byteOffset": 41808,
      "componentType": 5125,
      "count": 5184,
      "type": "SCALAR"
    }
  ],
  "asset": {
    "extras": {
      "author": "gguisthau4 (https://sketchfab.com/gguisthau4)",
      "license": "CC-BY-4.0 (http://creativecommons.org/licenses/by/4.0/)",
      "source": "https://sketchfab.com/3d-models/coke-zero-02605900d3ab4b26977b65f0ed0fad5e",
      "title": "Coke Zero"
    },
    "generator": "Sketchfab-16.32.0",
    "version": "2.0"
  },
  "bufferViews": [
    {
      "buffer": 0,
      "byteLength": 62544,
      "name": "floatBufferViews",
      "target": 34963
    },
    {
      "buffer": 0,
      "byteLength": 25128,
      "byteOffset": 62544,
      "byteStride": 8,
      "name": "floatBufferViews",
      "target": 34962
    },
    {
      "buffer": 0,
      "byteLength": 75384,
      "byteOffset": 87672,
      "byteStride": 12,
      "name": "floatBufferViews",
      "target": 34962
    },
    {
      "buffer": 0,
      "byteLength": 50256,
      "byteOffset": 163056,
      "byteStride": 16,
      "name": "floatBufferViews",
      "target": 34962
    }
  ],
  "buffers": [
    {
      "byteLength": 213312,
      "uri": "scene.bin"
    }
  ],
  "images": [
    {
      "uri": "textures/Allu_baseColor.jpeg"
    },
    {
      "uri": "textures/Allu_metallicRoughness.png"
    },
    {
      "uri": "textures/Allu_normal.png"
    },
    {
      "uri": "textures/Colo_baseColor.jpeg"
    },
    {
      "uri": "textures/Colo_metallicRoughness.png"
    },
    {
      "uri": "textures/Colo_normal.png"
    }
  ],
  "materials": [
    {
      "doubleSided": true,
      "name": "Allu",
      "normalTexture": {
        "index": 2
      },
      "occlusionTexture": {
        "index": 1
      },
      "pbrMetallicRoughness": {
        "baseColorTexture": {
          "index": 0
        },
        "metallicRoughnessTexture": {
          "index": 1
        }
      }
    },
    {
      "doubleSided": true,
      "name": "Colo",
      "normalTexture": {
        "index": 5
      },
      "occlusionTexture": {
        "index": 4
      },
      "pbrMetallicRoughness": {
        "baseColorTexture": {
          "index": 3
        },
        "metallicRoughnessTexture": {
          "index": 4
        }
      }
    }
  ],
  "meshes": [
    {
      "name": "defaultMaterial",
      "primitives": [
        {
          "attributes": {
            "NORMAL": 1,
            "POSITION": 0,
            "TANGENT": 2,
            "TEXCOORD_0": 3
          },
          "indices": 4,
          "material": 0,
          "mode": 4
        }
      ]
    },
    {
      "name": "defaultMaterial",
      "primitives": [
        {
          "attributes": {
            "NORMAL": 6,
            "POSITION": 5,
            "TANGENT": 7,
            "TEXCOORD_0": 8
          },
          "indices": 9,
          "material": 1,
          "mode": 4
        }
      ]
    }
  ],
  "nodes": [
    {
      "children": [
        1
      ],
      "matrix": [
        1.0,
        0.0,
        0.0,
        0.0,
        0.0,
        2.220446049250313e-16,
        -1.0,
        0.0,
        0.0,
        1.0,
        2.220446049250313e-16,
        0.0,
        0.0,
        0.0,
        0.0,
        1.0
      ],
      "name": "Sketchfab_model"
    },
    {
      "children": [
        2
      ],
      "matrix": [
        1.0,
        0.0,
        0.0,
        0.0,
        0.0,
        -4.371139006309477e-08,
        0.999999999999999,
        0.0,
        0.0,
        -0.999999999999999,
        -4.371139006309477e-08,
        0.0,
        0.0,
        0.0,
        0.0,
        1.0
      ],
      "name": "Collada visual scene group"
    },
    {
      "children": [
        3,
        4
      ],
      "matrix": [
        100.0,
        0.0,
        0.0,
        0.0,
        0.0,
        -1.6e-05,
        -100.0,
        0.0,
        0.0,
        100.0,
        -1.6e-05,
        0.0,
        0.0,
        0.0,
        0.0,
        1.0
      ],
      "name": "Circle.002"
    },
    {
      "mesh": 0,
      "name": "defaultMaterial"
    },
    {
      "mesh": 1,
      "name": "defaultMaterial"
    }
  ],
  "samplers": [
    {
      "magFilter": 9729,
      "minFilter": 9987,
      "wrapS": 10497,
      "wrapT": 10497
    }
  ],
  "scene": 0,
  "scenes": [
    {
      "name": "Sketchfab_Scene",
      "nodes": [
        0
      ]
    }
  ],
  "textures": [
    {
      "sampler": 0,
      "source": 0
    },
    {
      "sampler": 0,
      "source": 1
    },
    {
      "sampler": 0,
      "source": 2
    },
    {
      "sampler": 0,
      "source": 3
    },
    {
      "sampler": 0,
      "source": 4
    },
    {
      "sampler": 0,
      "source": 5
    }
  ]
}
